PathFileType	4	(X/Y/Z)	C:\Users\86182\Documents\cortex\Trimmed_M3_H9.trc
DataRate	CameraRate	NumFrames	NumMarkers	Units	OrigDataRate	OrigDataStartFrame	OrigNumFrames
100.00	100.00	       112	2	mm	100.00	541	       901
Frame#	Time	gripper			box			
		X1	Y1	Z1	X2	Y2	Z2	

541	5.400	267.79340	173.08977	292.32068	268.14777	170.71262	155.91327	
542	5.410	267.79282	173.09149	292.32019	268.14777	170.71269	155.91309	
543	5.420	267.79303	173.09216	292.31976	268.14777	170.71259	155.91336	
544	5.430	267.79401	173.09177	292.31961	268.14777	170.71228	155.91417	
545	5.440	267.79581	173.09032	292.31970	268.14774	170.71176	155.91553	
546	5.450	267.79840	173.08792	292.32001	268.14774	170.71106	155.91736	
547	5.460	267.80157	173.08481	292.32050	268.14771	170.71028	155.91939	
548	5.470	267.80487	173.08142	292.32086	268.14771	170.70959	155.92119	
549	5.480	267.80780	173.07820	292.32092	268.14767	170.70917	155.92229	
550	5.490	267.81049	173.07535	292.32056	268.14767	170.70911	155.92245	
551	5.500	267.81323	173.07283	292.31982	268.14767	170.70937	155.92175	
552	5.510	267.81613	173.07071	292.31879	268.14771	170.70987	155.92047	
553	5.520	267.81863	173.06937	292.31757	268.14771	170.71049	155.91882	
554	5.530	267.81973	173.06926	292.31647	268.14774	170.71117	155.91704	
555	5.540	267.81836	173.07071	292.31580	268.14774	170.71181	155.91536	
556	5.550	267.81433	173.07358	292.31564	268.14777	170.71234	155.91400	
557	5.560	267.80835	173.07730	292.31598	268.14777	170.71269	155.91306	
558	5.570	267.80182	173.08109	292.31665	268.14777	170.71288	155.91257	
559	5.580	267.79626	173.08423	292.31760	268.14777	170.71289	155.91252	
560	5.590	267.79294	173.08630	292.31891	268.14777	170.71277	155.91287	
561	5.600	267.79221	173.08714	292.32050	268.14777	170.71249	155.91356	
562	5.610	267.79361	173.08696	292.32214	268.14774	170.71213	155.91452	
563	5.620	267.79620	173.08606	292.32361	268.14774	170.71172	155.91560	
564	5.630	267.79922	173.08481	292.32471	268.14774	170.71135	155.91658	
565	5.640	267.80215	173.08347	292.32535	268.14771	170.71112	155.91714	
566	5.650	267.80484	173.08223	292.32544	268.14774	170.71115	155.91707	
567	5.660	267.80719	173.08116	292.32504	268.14774	170.71143	155.91638	
568	5.670	267.80920	173.08031	292.32443	268.14774	170.71181	155.91539	
569	5.680	267.81091	173.07961	292.32385	268.14774	170.71216	155.91446	
570	5.690	267.81250	173.07887	292.32333	268.14777	170.71239	155.91385	
571	5.700	267.81409	173.07803	292.32288	268.14777	170.71245	155.91373	
572	5.710	267.81543	173.07727	292.32251	268.14777	170.71228	155.91414	
573	5.720	267.81607	173.07687	292.32236	268.14774	170.71191	155.91508	
574	5.730	267.81577	173.07701	292.32257	268.14774	170.71138	155.91647	
575	5.740	267.81467	173.07765	292.32321	268.14771	170.71078	155.91803	
576	5.750	267.81299	173.07858	292.32425	268.14771	170.71025	155.91943	
577	5.760	267.81119	173.07961	292.32541	268.14771	170.70987	155.92041	
578	5.770	267.80963	173.08047	292.32645	268.14771	170.70969	155.92091	
579	5.780	267.80856	173.08109	292.32721	268.14771	170.70966	155.92102	
580	5.790	267.80789	173.08153	292.32758	268.14771	170.70975	155.92078	
581	5.800	267.80734	173.08199	292.32761	268.14771	170.70998	155.92017	
582	5.810	267.80670	173.08257	292.32733	268.14771	170.71037	155.91913	
583	5.820	267.80609	173.08316	292.32678	268.14771	170.71089	155.91774	
584	5.830	267.80579	173.08353	292.32602	268.14774	170.71147	155.91626	
585	5.840	267.80606	173.08350	292.32520	268.14774	170.71199	155.91490	
586	5.850	267.80710	173.08289	292.32437	268.14777	170.71239	155.91385	
587	5.860	267.80899	173.08165	292.32373	268.14777	170.71265	155.91316	
588	5.870	267.81168	173.07980	292.32333	268.14777	170.71278	155.91284	
589	5.880	267.81473	173.07768	292.32324	268.14777	170.71278	155.91283	
590	5.890	267.81723	173.07590	292.32346	268.14777	170.71266	155.91313	
591	5.900	267.81851	173.07497	292.32401	268.14777	170.71245	155.91371	
592	5.910	267.81833	173.07501	292.32471	268.14774	170.71213	155.91455	
593	5.920	267.81702	173.07587	292.32544	268.14774	170.71176	155.91550	
594	5.930	267.81494	173.07726	292.32602	268.14774	170.71138	155.91649	
595	5.940	267.81247	173.07895	292.32632	268.14771	170.71103	155.91742	
596	5.950	267.81003	173.08067	292.32632	268.14771	170.71071	155.91827	
597	5.960	267.80811	173.08205	292.32602	268.14771	170.71042	155.91901	
598	5.970	267.80722	173.08270	292.32541	268.14771	170.71019	155.91960	
599	5.980	267.80768	173.08247	292.32452	268.14771	170.71002	155.92004	
600	5.990	267.80954	173.08127	292.32352	268.14771	170.70995	155.92024	
601	6.000	267.81262	173.07921	292.32254	268.14771	170.71001	155.92009	
602	6.010	267.81635	173.07668	292.32184	268.14771	170.71016	155.91968	
603	6.020	267.81982	173.07431	292.32153	268.14771	170.71033	155.91924	
604	6.030	267.82205	173.07277	292.32162	268.14771	170.71043	155.91899	
605	6.040	267.82251	173.07245	292.32214	268.14771	170.71042	155.91899	
606	6.050	267.82114	173.07339	292.32288	268.14771	170.71034	155.91919	
607	6.060	267.81848	173.07523	292.32361	268.14771	170.71025	155.91943	
608	6.070	267.81540	173.07738	292.32422	268.14771	170.71019	155.91960	
609	6.080	267.81265	173.07928	292.32465	268.14771	170.71017	155.91966	
610	6.090	267.81070	173.08063	292.32501	268.14771	170.71017	155.91965	
611	6.100	267.80960	173.08134	292.32538	268.14771	170.71022	155.91956	
612	6.110	267.80896	173.08173	292.32574	268.14771	170.71028	155.91937	
613	6.120	267.80814	173.08223	292.32593	268.14771	170.71040	155.91905	
614	6.130	267.80682	173.08308	292.32584	268.14771	170.71059	155.91858	
615	6.140	267.80508	173.08427	292.32547	268.14771	170.71080	155.91803	
616	6.150	267.80344	173.08545	292.32489	268.14774	170.71097	155.91757	
617	6.160	267.80231	173.08627	292.32425	268.14774	170.71101	155.91747	
618	6.170	267.80209	173.08647	292.32367	268.14771	170.71085	155.91792	
619	6.180	267.80289	173.08598	292.32315	268.14771	170.71040	155.91905	
620	6.190	267.80463	173.08484	292.32275	268.14767	170.70967	155.92097	
621	6.200	267.80719	173.08310	292.32263	268.14767	170.70863	155.92371	
622	6.210	267.81024	173.08099	292.32300	268.14764	170.70734	155.92708	
623	6.220	267.81335	173.07883	292.32379	268.14761	170.70596	155.93069	
624	6.230	267.81616	173.07686	292.32477	268.14758	170.70474	155.93388	
625	6.240	267.81845	173.07524	292.32556	268.14755	170.70396	155.93591	
626	6.250	267.81995	173.07419	292.32614	268.14755	170.70387	155.93613	
627	6.260	267.82065	173.07365	292.32639	268.14758	170.70457	155.93430	
628	6.270	267.82086	173.07347	292.32626	268.14758	170.70589	155.93088	
629	6.280	267.82086	173.07347	292.32593	268.14764	170.70741	155.92685	
630	6.290	267.82050	173.07375	292.32568	268.14767	170.70879	155.92328	
631	6.300	267.81958	173.07445	292.32590	268.14767	170.70969	155.92090	
632	6.310	267.81799	173.07564	292.32687	268.14771	170.71004	155.92000	
633	6.320	267.81589	173.07721	292.32864	268.14771	170.70988	155.92041	
634	6.330	267.81369	173.07887	292.33093	268.14767	170.70940	155.92171	
635	6.340	267.81177	173.08032	292.33325	268.14767	170.70876	155.92337	
636	6.350	267.81033	173.08139	292.33505	268.14764	170.70810	155.92506	
637	6.360	267.80933	173.08208	292.33594	268.14764	170.70755	155.92651	
638	6.370	267.80862	173.08243	292.33569	268.14764	170.70715	155.92754	
639	6.380	267.80829	173.08246	292.33447	268.14764	170.70695	155.92807	
640	6.390	267.80853	173.08209	292.33276	268.14764	170.70694	155.92810	
641	6.400	267.80954	173.08125	292.33102	268.14764	170.70709	155.92772	
642	6.410	267.81140	173.07991	292.32947	268.14764	170.70732	155.92709	
643	6.420	267.81396	173.07817	292.32819	268.14764	170.70757	155.92645	
644	6.430	267.81680	173.07637	292.32727	268.14764	170.70772	155.92607	
645	6.440	267.81924	173.07494	292.32684	268.14764	170.70770	155.92612	
646	6.450	267.82083	173.07425	292.32712	268.14764	170.70752	155.92659	
647	6.460	267.82153	173.07433	292.32816	268.14761	170.70721	155.92738	
648	6.470	267.82169	173.07487	292.32980	268.14761	170.70686	155.92833	
649	6.480	267.82144	173.07568	292.33179	268.14761	170.70650	155.92928	
650	6.490	267.82068	173.07661	292.33380	268.14761	170.70615	155.93019	
651	6.500	267.81937	173.07756	292.33557	268.14758	170.70580	155.93109	
652	6.510	267.81772	173.07848	292.33704	268.14758	170.70547	155.93193	
